<?xml version="1.0" encoding="UTF-8"?>
<svg version="1.1" xmlns="http://www.w3.org/2000/svg" width="460" height="460">
<path d="M0 0 C1.11890625 0.68964844 2.2378125 1.37929687 3.390625 2.08984375 C5.56292433 3.43080104 7.73354217 4.77448669 9.90234375 6.12109375 C14.51220481 8.91723898 19.2466455 11.45853003 24 14 C27.01079404 15.64761813 30.00752635 17.31935957 33 19 C34.62615234 19.91265625 34.62615234 19.91265625 36.28515625 20.84375 C42.75924219 24.49890731 49.0864113 28.29175022 55.328125 32.3359375 C58.98961573 34.61633962 62.77072779 36.63826081 66.58984375 38.640625 C69 40 69 40 71.00390625 41.546875 C73.24183754 43.17605394 75.43227251 43.97989074 78 45 C79.81391062 46.11028453 81.60505917 47.25838469 83.375 48.4375 C87.49425322 51.11306366 91.41190617 53.26672011 96 55 C96 55.66 96 56.32 96 57 C96.721875 57.226875 97.44375 57.45375 98.1875 57.6875 C101.66876011 59.31208805 103.43131913 61.12552379 106 64 C106.85658203 64.89138672 106.85658203 64.89138672 107.73046875 65.80078125 C119.85143269 79.52409011 117.60017686 98.99504326 117.53730202 116.08543396 C117.52704515 119.75390757 117.53660235 123.42234476 117.54284668 127.09082031 C117.55008672 133.24681897 117.54063201 139.40262453 117.52148438 145.55859375 C117.49972254 152.63594161 117.50677652 159.71282824 117.52879 166.79016495 C117.54704883 172.90958679 117.54945158 179.02887128 117.53903532 185.14831161 C117.53285747 188.78437589 117.5318044 192.42022471 117.54518127 196.05627441 C117.66655512 234.38993984 117.66655512 234.38993984 105 248 C99.38730853 253 99.38730853 253 96 253 C96 253.66 96 254.32 96 255 C95.38253906 255.29132813 94.76507813 255.58265625 94.12890625 255.8828125 C88.80355048 258.46038196 83.9475877 261.30674334 79.08203125 264.6640625 C76.21906412 266.50108831 73.12285625 267.66163303 70 269 C67.71437972 270.45599404 65.4901769 271.9872681 63.2578125 273.5234375 C60.58416823 275.27194534 57.82502527 276.63704584 54.94921875 278.015625 C52.26952575 279.36889682 49.78286546 280.9725506 47.25390625 282.5859375 C38.32260696 288.18928298 29.04475433 293.20002744 19.76953125 298.203125 C14.1043688 301.29884219 8.63445415 304.67653892 3.1484375 308.078125 C-0.19489276 310.1189668 -3.57744949 312.04932272 -7.0234375 313.91015625 C-8.29808644 314.61297652 -9.55564958 315.34819089 -10.7890625 316.12109375 C-21.02705343 322.50230727 -35.09071394 322.64469577 -46.625 320 C-53.61142235 317.77229347 -59.79824168 313.82953856 -66 310 C-67.68029297 308.96552734 -67.68029297 308.96552734 -69.39453125 307.91015625 C-71.55683716 306.57378451 -73.71706589 305.23404477 -75.875 303.890625 C-79.79308653 301.52018265 -83.80032385 299.35209965 -87.85546875 297.2265625 C-90 296 -90 296 -92 294 C-93.69525249 293.26374071 -95.39210691 292.53070711 -97.10058594 291.82568359 C-100.06757153 290.53592199 -102.82518122 288.92878883 -105.625 287.3125 C-106.22618652 286.96582275 -106.82737305 286.61914551 -107.44677734 286.26196289 C-112.63158938 283.25433769 -117.73066472 280.11249673 -122.82421875 276.953125 C-131.75574608 271.44993612 -131.75574608 271.44993612 -141.0078125 266.51953125 C-143.9684958 265.01599887 -146.67006243 263.33156971 -149.4375 261.5 C-153.5333325 258.853376 -157.44436028 256.72101945 -162 255 C-162 254.34 -162 253.68 -162 253 C-163.0828125 252.6596875 -163.0828125 252.6596875 -164.1875 252.3125 C-167.66876011 250.68791195 -169.43131913 248.87447621 -172 246 C-172.57105469 245.40574219 -173.14210938 244.81148437 -173.73046875 244.19921875 C-185.85143269 230.47590989 -183.60017686 211.00495674 -183.53730202 193.91456604 C-183.52704515 190.24609243 -183.53660235 186.57765524 -183.54284668 182.90917969 C-183.55008672 176.75318103 -183.54063201 170.59737547 -183.52148438 164.44140625 C-183.49972254 157.36405839 -183.50677652 150.28717176 -183.52879 143.20983505 C-183.54704883 137.09041321 -183.54945158 130.97112872 -183.53903532 124.85168839 C-183.53285747 121.21562411 -183.5318044 117.57977529 -183.54518127 113.94372559 C-183.66655512 75.61006016 -183.66655512 75.61006016 -171 62 C-165.38730853 57 -165.38730853 57 -162 57 C-162 56.34 -162 55.68 -162 55 C-161.38253906 54.70867187 -160.76507813 54.41734375 -160.12890625 54.1171875 C-154.80355048 51.53961804 -149.9475877 48.69325666 -145.08203125 45.3359375 C-142.21906412 43.49891169 -139.12285625 42.33836697 -136 41 C-133.71199999 39.54249001 -131.48535436 38.00946238 -129.25 36.47265625 C-126.62183419 34.75248522 -123.9174765 33.40971151 -121.08984375 32.0546875 C-116.92084953 29.95070911 -112.9804895 27.43654206 -109 25 C-99.51156885 19.19193002 -99.51156885 19.19193002 -94.9375 17 C-91.94107408 15.55303376 -89.24692935 13.87824229 -86.5 12 C-83.2092179 9.75399931 -79.94186688 7.90553503 -76.35546875 6.1875 C-73.21798399 4.60574981 -70.17324061 2.87033409 -67.125 1.125 C-66.5172876 0.77888672 -65.9095752 0.43277344 -65.28344727 0.07617188 C-61.70252663 -1.97692127 -58.2217743 -4.14079824 -54.75 -6.375 C-36.91953378 -17.02696683 -16.15015228 -10.06452227 0 0 Z " fill="#B8AEC7" transform="translate(263,75)"/>
<path d="M0 0 C1.11890625 0.68964844 2.2378125 1.37929687 3.390625 2.08984375 C5.56292433 3.43080104 7.73354217 4.77448669 9.90234375 6.12109375 C14.51220481 8.91723898 19.2466455 11.45853003 24 14 C27.01079404 15.64761813 30.00752635 17.31935957 33 19 C34.62615234 19.91265625 34.62615234 19.91265625 36.28515625 20.84375 C42.75924219 24.49890731 49.0864113 28.29175022 55.328125 32.3359375 C58.98961573 34.61633962 62.77072779 36.63826081 66.58984375 38.640625 C69 40 69 40 71.00390625 41.546875 C73.24183754 43.17605394 75.43227251 43.97989074 78 45 C79.81391062 46.11028453 81.60505917 47.25838469 83.375 48.4375 C87.49425322 51.11306366 91.41190617 53.26672011 96 55 C96 55.66 96 56.32 96 57 C96.721875 57.226875 97.44375 57.45375 98.1875 57.6875 C101.66876011 59.31208805 103.43131913 61.12552379 106 64 C106.85658203 64.89138672 106.85658203 64.89138672 107.73046875 65.80078125 C119.85143269 79.52409011 117.60017686 98.99504326 117.53730202 116.08543396 C117.52704515 119.75390757 117.53660235 123.42234476 117.54284668 127.09082031 C117.55008672 133.24681897 117.54063201 139.40262453 117.52148438 145.55859375 C117.49972254 152.63594161 117.50677652 159.71282824 117.52879 166.79016495 C117.54704883 172.90958679 117.54945158 179.02887128 117.53903532 185.14831161 C117.53285747 188.78437589 117.5318044 192.42022471 117.54518127 196.05627441 C117.66655512 234.38993984 117.66655512 234.38993984 105 248 C99.38730853 253 99.38730853 253 96 253 C96 253.66 96 254.32 96 255 C95.38253906 255.29132813 94.76507813 255.58265625 94.12890625 255.8828125 C88.80355048 258.46038196 83.9475877 261.30674334 79.08203125 264.6640625 C76.21906412 266.50108831 73.12285625 267.66163303 70 269 C67.71437972 270.45599404 65.4901769 271.9872681 63.2578125 273.5234375 C60.58416823 275.27194534 57.82502527 276.63704584 54.94921875 278.015625 C52.26952575 279.36889682 49.78286546 280.9725506 47.25390625 282.5859375 C38.32260696 288.18928298 29.04475433 293.20002744 19.76953125 298.203125 C14.1043688 301.29884219 8.63445415 304.67653892 3.1484375 308.078125 C-0.19489276 310.1189668 -3.57744949 312.04932272 -7.0234375 313.91015625 C-8.29808644 314.61297652 -9.55564958 315.34819089 -10.7890625 316.12109375 C-21.02705343 322.50230727 -35.09071394 322.64469577 -46.625 320 C-53.61142235 317.77229347 -59.79824168 313.82953856 -66 310 C-67.68029297 308.96552734 -67.68029297 308.96552734 -69.39453125 307.91015625 C-71.55683716 306.57378451 -73.71706589 305.23404477 -75.875 303.890625 C-79.79308653 301.52018265 -83.80032385 299.35209965 -87.85546875 297.2265625 C-90 296 -90 296 -92 294 C-93.69525249 293.26374071 -95.39210691 292.53070711 -97.10058594 291.82568359 C-100.06757153 290.53592199 -102.82518122 288.92878883 -105.625 287.3125 C-106.22618652 286.96582275 -106.82737305 286.61914551 -107.44677734 286.26196289 C-112.63158938 283.25433769 -117.73066472 280.11249673 -122.82421875 276.953125 C-131.75574608 271.44993612 -131.75574608 271.44993612 -141.0078125 266.51953125 C-143.9684958 265.01599887 -146.67006243 263.33156971 -149.4375 261.5 C-153.5333325 258.853376 -157.44436028 256.72101945 -162 255 C-162 254.34 -162 253.68 -162 253 C-163.0828125 252.6596875 -163.0828125 252.6596875 -164.1875 252.3125 C-167.66876011 250.68791195 -169.43131913 248.87447621 -172 246 C-172.57105469 245.40574219 -173.14210938 244.81148437 -173.73046875 244.19921875 C-185.85143269 230.47590989 -183.60017686 211.00495674 -183.53730202 193.91456604 C-183.52704515 190.24609243 -183.53660235 186.57765524 -183.54284668 182.90917969 C-183.55008672 176.75318103 -183.54063201 170.59737547 -183.52148438 164.44140625 C-183.49972254 157.36405839 -183.50677652 150.28717176 -183.52879 143.20983505 C-183.54704883 137.09041321 -183.54945158 130.97112872 -183.53903532 124.85168839 C-183.53285747 121.21562411 -183.5318044 117.57977529 -183.54518127 113.94372559 C-183.66655512 75.61006016 -183.66655512 75.61006016 -171 62 C-165.38730853 57 -165.38730853 57 -162 57 C-162 56.34 -162 55.68 -162 55 C-161.38253906 54.70867187 -160.76507813 54.41734375 -160.12890625 54.1171875 C-154.80355048 51.53961804 -149.9475877 48.69325666 -145.08203125 45.3359375 C-142.21906412 43.49891169 -139.12285625 42.33836697 -136 41 C-133.71199999 39.54249001 -131.48535436 38.00946238 -129.25 36.47265625 C-126.62183419 34.75248522 -123.9174765 33.40971151 -121.08984375 32.0546875 C-116.92084953 29.95070911 -112.9804895 27.43654206 -109 25 C-99.51156885 19.19193002 -99.51156885 19.19193002 -94.9375 17 C-91.94107408 15.55303376 -89.24692935 13.87824229 -86.5 12 C-83.2092179 9.75399931 -79.94186688 7.90553503 -76.35546875 6.1875 C-73.21798399 4.60574981 -70.17324061 2.87033409 -67.125 1.125 C-66.5172876 0.77888672 -65.9095752 0.43277344 -65.28344727 0.07617188 C-61.70252663 -1.97692127 -58.2217743 -4.14079824 -54.75 -6.375 C-36.91953378 -17.02696683 -16.15015228 -10.06452227 0 0 Z M-56.30078125 6.23046875 C-59.58073933 8.38071623 -62.97666986 10.08376588 -66.515625 11.76171875 C-72.31753936 14.65355342 -77.83264872 18.08290004 -83.375 21.4375 C-88.24938866 24.37982324 -93.1410493 27.25262981 -98.16796875 29.9296875 C-100.07353823 30.98762627 -100.07353823 30.98762627 -101.92578125 32.5078125 C-104.20100598 34.14460317 -106.40003965 34.96864318 -109 36 C-110.83542713 37.10873691 -112.64748375 38.25685098 -114.4375 39.4375 C-118.212315 41.88684592 -121.97606771 43.98803385 -126 46 C-127.42523876 46.94553778 -128.8410177 47.90540416 -130.25 48.875 C-134.19575129 51.55625717 -138.23792352 53.70601081 -142.5234375 55.7890625 C-153.72545836 61.26639131 -164.67198494 67.87142179 -171 79 C-173.30016165 86.0762431 -173.28959013 92.83712148 -173.2746582 100.23388672 C-173.27976913 101.5454776 -173.28488007 102.85706848 -173.29014587 104.20840454 C-173.30347092 107.78702919 -173.3041218 111.36554781 -173.30158257 114.94419241 C-173.30050837 117.94096564 -173.30540772 120.93771782 -173.310188 123.93448651 C-173.32126088 131.00956321 -173.32173321 138.08458681 -173.31567383 145.15966797 C-173.30963633 152.43740441 -173.32194439 159.71494741 -173.3432439 166.99265087 C-173.36090734 173.26044498 -173.36685378 179.52817777 -173.36360615 185.79599583 C-173.36180058 189.53090947 -173.36435632 193.26568512 -173.37832069 197.00057602 C-173.39332677 201.16961817 -173.38388762 205.33827109 -173.37231445 209.50732422 C-173.37995819 210.73050354 -173.38760193 211.95368286 -173.39547729 213.21392822 C-173.33805351 222.60001629 -172.26330029 231.6125176 -166 239 C-160.59220403 243.99104839 -155.01904347 247.7540427 -148.36328125 250.859375 C-145.4692166 252.25617976 -142.84048905 253.93521379 -140.14453125 255.67578125 C-136.6928437 257.80715116 -133.10102053 259.67517486 -129.515625 261.5703125 C-127.17869235 262.89844503 -125.13354865 264.37379201 -123 266 C-122.113125 266.433125 -121.22625 266.86625 -120.3125 267.3125 C-117.52617082 268.73195072 -115.1271678 270.23351962 -112.5625 272 C-108.84647595 274.52913342 -105.15347378 276.26309278 -101 278 C-99.0596428 279.13116894 -97.1782932 280.3362758 -95.2890625 281.55078125 C-88.77071821 285.67758284 -82.03797653 289.46269366 -75.25 293.125 C-71.38928652 295.21022777 -67.66257675 297.42196024 -63.96484375 299.78125 C-61.09165774 301.56342502 -58.13536729 303.18173592 -55.16796875 304.80078125 C-53.16630757 305.90800645 -51.2104521 307.07202769 -49.25 308.25 C-43.53016965 311.32990865 -38.35130894 311.12453547 -32 311 C-32.99 309.515 -32.99 309.515 -34 308 C-34.25447559 305.29218674 -34.25447559 305.29218674 -34.26069641 301.95379639 C-34.26778122 300.68925125 -34.27486603 299.42470612 -34.28216553 298.12184143 C-34.27987159 296.71762049 -34.27736187 295.3133999 -34.2746582 293.90917969 C-34.2790048 292.43242637 -34.28418778 290.95567531 -34.29014587 289.47892761 C-34.30355632 285.46427514 -34.30411202 281.4497167 -34.30158257 277.4350462 C-34.30051372 274.08283995 -34.3053943 270.73065279 -34.310188 267.37845063 C-34.32129137 259.46696693 -34.32171667 251.5555307 -34.31567383 243.64404297 C-34.30963948 235.48760564 -34.32192939 227.33134105 -34.3432439 219.1749332 C-34.36087467 212.17013918 -34.36685872 205.16540007 -34.36360615 198.16058469 C-34.36179468 193.97800838 -34.36441543 189.79555515 -34.37832069 185.61299896 C-34.39091759 181.67640572 -34.38893745 177.74008082 -34.37590981 173.80349159 C-34.37354809 172.36157706 -34.37626421 170.91964354 -34.38453293 169.47775078 C-34.45559477 156.11853412 -34.45559477 156.11853412 -31 150 C-30.68160156 149.28972656 -30.36320313 148.57945312 -30.03515625 147.84765625 C-25.1435034 138.86980343 -15.12322456 134.245222 -6.15625 130.10546875 C-3.891889 128.94457353 -2.0282231 127.52839623 0 126 C1.67018122 125.31227832 3.34081307 124.6255851 5.015625 123.94921875 C7.33478581 122.83985639 9.33031277 121.47139798 11.4375 120 C14.24557625 118.0614296 16.76446283 116.58065655 20 115.5 C24.0401377 114.14264149 27.16712946 111.96552847 30.6484375 109.54296875 C33.8171187 107.46385069 37.14579025 105.85217763 40.55078125 104.19921875 C47.75003351 100.67422602 54.55085541 96.46584735 61.39648438 92.31103516 C65.80877896 89.65540487 70.27842052 87.24840494 74.94921875 85.0703125 C77.16286323 83.9150009 79.00680236 82.49789402 81 81 C83.31808364 79.96514123 85.65175298 78.9644586 88 78 C88.63421875 77.65324219 89.2684375 77.30648437 89.921875 76.94921875 C92.26288033 75.87992496 94.19372193 75.60055395 96.75 75.375 C97.54921875 75.30023438 98.3484375 75.22546875 99.171875 75.1484375 C99.77515625 75.09945312 100.3784375 75.05046875 101 75 C97.63692867 67.13531757 89.8710091 62.58891855 82.40625 59.14453125 C79.44207368 57.73462271 76.75656947 56.02678057 74 54.25390625 C71.18608648 52.48971437 68.28499855 50.90050015 65.37109375 49.30859375 C59.1794012 45.89143229 53.22744475 42.26405167 47.33789062 38.35546875 C43.70288967 35.98109102 40.01526839 33.96773795 36.11352539 32.06738281 C32.20688921 30.09443452 28.4598123 27.8409518 24.6875 25.625 C18.60018192 22.07107442 12.48598641 18.60041873 6.27734375 15.26171875 C3.43475864 13.68683884 0.70354754 11.96614383 -2.03515625 10.21875 C-4.91287585 8.43376289 -7.87303711 6.81228495 -10.84765625 5.1953125 C-12.18653516 4.45176087 -13.51067973 3.68013581 -14.80859375 2.8671875 C-28.55401629 -5.7038612 -43.60426651 -2.37273311 -56.30078125 6.23046875 Z " fill="#3C345C" transform="translate(263,75)"/>
<path d="M0 0 C1.11890625 0.68964844 2.2378125 1.37929687 3.390625 2.08984375 C5.56292433 3.43080104 7.73354217 4.77448669 9.90234375 6.12109375 C14.51220481 8.91723898 19.2466455 11.45853003 24 14 C27.01079404 15.64761813 30.00752635 17.31935957 33 19 C34.62615234 19.91265625 34.62615234 19.91265625 36.28515625 20.84375 C42.75924219 24.49890731 49.0864113 28.29175022 55.328125 32.3359375 C58.98961573 34.61633962 62.77072779 36.63826081 66.58984375 38.640625 C69 40 69 40 71.00390625 41.546875 C73.24183754 43.17605394 75.43227251 43.97989074 78 45 C79.81391062 46.11028453 81.60505917 47.25838469 83.375 48.4375 C87.49425322 51.11306366 91.41190617 53.26672011 96 55 C96 55.66 96 56.32 96 57 C96.721875 57.226875 97.44375 57.45375 98.1875 57.6875 C101.66876011 59.31208805 103.43131913 61.12552379 106 64 C106.85658203 64.89138672 106.85658203 64.89138672 107.73046875 65.80078125 C119.85143269 79.52409011 117.60017686 98.99504326 117.53730202 116.08543396 C117.52704515 119.75390757 117.53660235 123.42234476 117.54284668 127.09082031 C117.55008672 133.24681897 117.54063201 139.40262453 117.52148438 145.55859375 C117.49972254 152.63594161 117.50677652 159.71282824 117.52879 166.79016495 C117.54704883 172.90958679 117.54945158 179.02887128 117.53903532 185.14831161 C117.53285747 188.78437589 117.5318044 192.42022471 117.54518127 196.05627441 C117.66655512 234.38993984 117.66655512 234.38993984 105 248 C99.38730853 253 99.38730853 253 96 253 C96 253.66 96 254.32 96 255 C95.38253906 255.29132813 94.76507813 255.58265625 94.12890625 255.8828125 C88.80355048 258.46038196 83.9475877 261.30674334 79.08203125 264.6640625 C76.21906412 266.50108831 73.12285625 267.66163303 70 269 C67.71437972 270.45599404 65.4901769 271.9872681 63.2578125 273.5234375 C60.58416823 275.27194534 57.82502527 276.63704584 54.94921875 278.015625 C52.26952575 279.36889682 49.78286546 280.9725506 47.25390625 282.5859375 C38.32260696 288.18928298 29.04475433 293.20002744 19.76953125 298.203125 C14.1043688 301.29884219 8.63445415 304.67653892 3.1484375 308.078125 C-0.19489276 310.1189668 -3.57744949 312.04932272 -7.0234375 313.91015625 C-8.29808644 314.61297652 -9.55564958 315.34819089 -10.7890625 316.12109375 C-21.02705343 322.50230727 -35.09071394 322.64469577 -46.625 320 C-53.61142235 317.77229347 -59.79824168 313.82953856 -66 310 C-67.68029297 308.96552734 -67.68029297 308.96552734 -69.39453125 307.91015625 C-71.55683716 306.57378451 -73.71706589 305.23404477 -75.875 303.890625 C-79.79308653 301.52018265 -83.80032385 299.35209965 -87.85546875 297.2265625 C-90 296 -90 296 -92 294 C-93.69525249 293.26374071 -95.39210691 292.53070711 -97.10058594 291.82568359 C-100.06757153 290.53592199 -102.82518122 288.92878883 -105.625 287.3125 C-106.22618652 286.96582275 -106.82737305 286.61914551 -107.44677734 286.26196289 C-112.63158938 283.25433769 -117.73066472 280.11249673 -122.82421875 276.953125 C-131.75574608 271.44993612 -131.75574608 271.44993612 -141.0078125 266.51953125 C-143.9684958 265.01599887 -146.67006243 263.33156971 -149.4375 261.5 C-153.5333325 258.853376 -157.44436028 256.72101945 -162 255 C-162 254.34 -162 253.68 -162 253 C-163.0828125 252.6596875 -163.0828125 252.6596875 -164.1875 252.3125 C-167.66876011 250.68791195 -169.43131913 248.87447621 -172 246 C-172.57105469 245.40574219 -173.14210938 244.81148437 -173.73046875 244.19921875 C-185.85143269 230.47590989 -183.60017686 211.00495674 -183.53730202 193.91456604 C-183.52704515 190.24609243 -183.53660235 186.57765524 -183.54284668 182.90917969 C-183.55008672 176.75318103 -183.54063201 170.59737547 -183.52148438 164.44140625 C-183.49972254 157.36405839 -183.50677652 150.28717176 -183.52879 143.20983505 C-183.54704883 137.09041321 -183.54945158 130.97112872 -183.53903532 124.85168839 C-183.53285747 121.21562411 -183.5318044 117.57977529 -183.54518127 113.94372559 C-183.66655512 75.61006016 -183.66655512 75.61006016 -171 62 C-165.38730853 57 -165.38730853 57 -162 57 C-162 56.34 -162 55.68 -162 55 C-161.38253906 54.70867187 -160.76507813 54.41734375 -160.12890625 54.1171875 C-154.80355048 51.53961804 -149.9475877 48.69325666 -145.08203125 45.3359375 C-142.21906412 43.49891169 -139.12285625 42.33836697 -136 41 C-133.71199999 39.54249001 -131.48535436 38.00946238 -129.25 36.47265625 C-126.62183419 34.75248522 -123.9174765 33.40971151 -121.08984375 32.0546875 C-116.92084953 29.95070911 -112.9804895 27.43654206 -109 25 C-99.51156885 19.19193002 -99.51156885 19.19193002 -94.9375 17 C-91.94107408 15.55303376 -89.24692935 13.87824229 -86.5 12 C-83.2092179 9.75399931 -79.94186688 7.90553503 -76.35546875 6.1875 C-73.21798399 4.60574981 -70.17324061 2.87033409 -67.125 1.125 C-66.5172876 0.77888672 -65.9095752 0.43277344 -65.28344727 0.07617188 C-61.70252663 -1.97692127 -58.2217743 -4.14079824 -54.75 -6.375 C-36.91953378 -17.02696683 -16.15015228 -10.06452227 0 0 Z M-56.30078125 6.23046875 C-59.58073933 8.38071623 -62.97666986 10.08376588 -66.515625 11.76171875 C-72.31753936 14.65355342 -77.83264872 18.08290004 -83.375 21.4375 C-88.24938866 24.37982324 -93.1410493 27.25262981 -98.16796875 29.9296875 C-100.07353823 30.98762627 -100.07353823 30.98762627 -101.92578125 32.5078125 C-104.20100598 34.14460317 -106.40003965 34.96864318 -109 36 C-110.83542713 37.10873691 -112.64748375 38.25685098 -114.4375 39.4375 C-118.212315 41.88684592 -121.97606771 43.98803385 -126 46 C-127.42523876 46.94553778 -128.8410177 47.90540416 -130.25 48.875 C-134.19575129 51.55625717 -138.23792352 53.70601081 -142.5234375 55.7890625 C-153.72545836 61.26639131 -164.67198494 67.87142179 -171 79 C-173.30016165 86.0762431 -173.28959013 92.83712148 -173.2746582 100.23388672 C-173.27976913 101.5454776 -173.28488007 102.85706848 -173.29014587 104.20840454 C-173.30347092 107.78702919 -173.3041218 111.36554781 -173.30158257 114.94419241 C-173.30050837 117.94096564 -173.30540772 120.93771782 -173.310188 123.93448651 C-173.32126088 131.00956321 -173.32173321 138.08458681 -173.31567383 145.15966797 C-173.30963633 152.43740441 -173.32194439 159.71494741 -173.3432439 166.99265087 C-173.36090734 173.26044498 -173.36685378 179.52817777 -173.36360615 185.79599583 C-173.36180058 189.53090947 -173.36435632 193.26568512 -173.37832069 197.00057602 C-173.39332677 201.16961817 -173.38388762 205.33827109 -173.37231445 209.50732422 C-173.37995819 210.73050354 -173.38760193 211.95368286 -173.39547729 213.21392822 C-173.33805351 222.60001629 -172.26330029 231.6125176 -166 239 C-160.59220403 243.99104839 -155.01904347 247.7540427 -148.36328125 250.859375 C-145.4692166 252.25617976 -142.84048905 253.93521379 -140.14453125 255.67578125 C-136.6928437 257.80715116 -133.10102053 259.67517486 -129.515625 261.5703125 C-127.17869235 262.89844503 -125.13354865 264.37379201 -123 266 C-122.113125 266.433125 -121.22625 266.86625 -120.3125 267.3125 C-117.52617082 268.73195072 -115.1271678 270.23351962 -112.5625 272 C-108.84647595 274.52913342 -105.15347378 276.26309278 -101 278 C-99.0596428 279.13116894 -97.1782932 280.3362758 -95.2890625 281.55078125 C-88.77071821 285.67758284 -82.03797653 289.46269366 -75.25 293.125 C-71.38928652 295.21022777 -67.66257675 297.42196024 -63.96484375 299.78125 C-61.09165774 301.56342502 -58.13536729 303.18173592 -55.16796875 304.80078125 C-53.16630757 305.90800645 -51.2104521 307.07202769 -49.25 308.25 C-43.53016965 311.32990865 -38.35130894 311.12453547 -32 311 C-32.99 309.515 -32.99 309.515 -34 308 C-34.25447559 305.29218674 -34.25447559 305.29218674 -34.26069641 301.95379639 C-34.26778122 300.68925125 -34.27486603 299.42470612 -34.28216553 298.12184143 C-34.27987159 296.71762049 -34.27736187 295.3133999 -34.2746582 293.90917969 C-34.2790048 292.43242637 -34.28418778 290.95567531 -34.29014587 289.47892761 C-34.30355632 285.46427514 -34.30411202 281.4497167 -34.30158257 277.4350462 C-34.30051372 274.08283995 -34.3053943 270.73065279 -34.310188 267.37845063 C-34.32129137 259.46696693 -34.32171667 251.5555307 -34.31567383 243.64404297 C-34.30963948 235.48760564 -34.32192939 227.33134105 -34.3432439 219.1749332 C-34.36087467 212.17013918 -34.36685872 205.16540007 -34.36360615 198.16058469 C-34.36179468 193.97800838 -34.36441543 189.79555515 -34.37832069 185.61299896 C-34.39091759 181.67640572 -34.38893745 177.74008082 -34.37590981 173.80349159 C-34.37354809 172.36157706 -34.37626421 170.91964354 -34.38453293 169.47775078 C-34.45559477 156.11853412 -34.45559477 156.11853412 -31 150 C-30.68160156 149.28972656 -30.36320313 148.57945312 -30.03515625 147.84765625 C-25.1435034 138.86980343 -15.12322456 134.245222 -6.15625 130.10546875 C-3.891889 128.94457353 -2.0282231 127.52839623 0 126 C1.67018122 125.31227832 3.34081307 124.6255851 5.015625 123.94921875 C7.33478581 122.83985639 9.33031277 121.47139798 11.4375 120 C14.24557625 118.0614296 16.76446283 116.58065655 20 115.5 C24.0401377 114.14264149 27.16712946 111.96552847 30.6484375 109.54296875 C33.8171187 107.46385069 37.14579025 105.85217763 40.55078125 104.19921875 C47.75003351 100.67422602 54.55085541 96.46584735 61.39648438 92.31103516 C65.80877896 89.65540487 70.27842052 87.24840494 74.94921875 85.0703125 C77.16286323 83.9150009 79.00680236 82.49789402 81 81 C83.31808364 79.96514123 85.65175298 78.9644586 88 78 C88.63421875 77.65324219 89.2684375 77.30648437 89.921875 76.94921875 C92.26288033 75.87992496 94.19372193 75.60055395 96.75 75.375 C97.54921875 75.30023438 98.3484375 75.22546875 99.171875 75.1484375 C99.77515625 75.09945312 100.3784375 75.05046875 101 75 C97.63692867 67.13531757 89.8710091 62.58891855 82.40625 59.14453125 C79.44207368 57.73462271 76.75656947 56.02678057 74 54.25390625 C71.18608648 52.48971437 68.28499855 50.90050015 65.37109375 49.30859375 C59.1794012 45.89143229 53.22744475 42.26405167 47.33789062 38.35546875 C43.70288967 35.98109102 40.01526839 33.96773795 36.11352539 32.06738281 C32.20688921 30.09443452 28.4598123 27.8409518 24.6875 25.625 C18.60018192 22.07107442 12.48598641 18.60041873 6.27734375 15.26171875 C3.43475864 13.68683884 0.70354754 11.96614383 -2.03515625 10.21875 C-4.91287585 8.43376289 -7.87303711 6.81228495 -10.84765625 5.1953125 C-12.18653516 4.45176087 -13.51067973 3.68013581 -14.80859375 2.8671875 C-28.55401629 -5.7038612 -43.60426651 -2.37273311 -56.30078125 6.23046875 Z M78 88 C76.5493612 88.82615945 75.09205604 89.64085771 73.625 90.4375 C70.88198413 91.95123839 68.148011 93.47956877 65.421875 95.0234375 C64.07299823 95.78660252 62.72403705 96.54961835 61.375 97.3125 C60.69348877 97.69809082 60.01197754 98.08368164 59.30981445 98.48095703 C53.91706467 101.51765108 48.46915667 104.43982518 42.96044922 107.26098633 C39.28375213 109.1791963 36.22509109 111.41455198 33 114 C30.37624385 115.22716692 27.75217448 116.0670595 25 117 C25 117.66 25 118.32 25 119 C24.48824219 119.08765625 23.97648437 119.1753125 23.44921875 119.265625 C19.99719847 120.30068052 16.95953155 122.02898549 13.8125 123.75 C13.13759521 124.11488525 12.46269043 124.47977051 11.76733398 124.85571289 C9.84204977 125.89870041 7.92030229 126.94787424 6 128 C5.20078125 128.43699219 4.4015625 128.87398437 3.578125 129.32421875 C2.22031568 130.07417157 0.86619306 130.83083369 -0.484375 131.59375 C-2.6095933 132.78176023 -4.74618503 133.94108806 -6.890625 135.09375 C-8.32303537 135.87478234 -9.755326 136.65603431 -11.1875 137.4375 C-11.86546631 137.79706787 -12.54343262 138.15663574 -13.24194336 138.52709961 C-17.94958465 141.11702479 -21.43054187 143.96423629 -25 148 C-25 148.66 -25 149.32 -25 150 C-25.66 150 -26.32 150 -27 150 C-30.12061508 158.16043692 -30.4227597 165.71301982 -30.37231445 174.38232422 C-30.37474727 175.80586512 -30.37847132 177.22940431 -30.38337708 178.65293884 C-30.39271762 182.48936255 -30.38342153 186.32552811 -30.37004495 190.16193151 C-30.35866832 194.18657782 -30.36284239 198.21121258 -30.36479187 202.23587036 C-30.36567228 208.98574001 -30.35464248 215.73550872 -30.33618164 222.48535156 C-30.31496638 230.28694537 -30.31151655 238.08839198 -30.3177436 245.89000881 C-30.32343646 253.40785404 -30.31779583 260.9256475 -30.30657005 268.44348526 C-30.30192828 271.63877445 -30.30104831 274.83403194 -30.3031559 278.02932358 C-30.30503873 281.78704172 -30.29693544 285.54460984 -30.2810955 289.30229378 C-30.27685268 290.68096483 -30.2760021 292.05965111 -30.27878571 293.43832588 C-30.28200774 295.31939498 -30.2717003 297.20047278 -30.26069641 299.08151245 C-30.25864354 300.13411695 -30.25659067 301.18672146 -30.25447559 302.27122307 C-29.99625572 305.04015039 -29.51489568 306.68513879 -28 309 C-24.1242927 310.69816106 -21.21881636 309.44074066 -17.421875 308.08203125 C-14.10537355 306.60030399 -11.28085292 304.6318518 -8.3203125 302.54296875 C-5.15835559 300.44032064 -1.8123225 298.86010656 1.6015625 297.2109375 C4.49166469 295.75176539 7.1666094 294.05840357 9.88671875 292.30859375 C12.29466012 290.81753948 14.75727227 289.46943255 17.25 288.125 C21.41675251 285.86922655 25.56695546 283.58934331 29.6875 281.25 C30.70199219 280.67765625 31.71648437 280.1053125 32.76171875 279.515625 C33.50035156 279.01546875 34.23898437 278.5153125 35 278 C35 277.34 35 276.68 35 276 C35.69480469 275.90589844 36.38960938 275.81179688 37.10546875 275.71484375 C40.59372656 274.85337117 43.21741023 273.38025113 46.3125 271.5625 C47.38113281 270.94503906 48.44976562 270.32757813 49.55078125 269.69140625 C50.76314453 268.85416016 50.76314453 268.85416016 52 268 C52 267.34 52 266.68 52 266 C52.845625 265.938125 53.69125 265.87625 54.5625 265.8125 C58.10022332 264.97631085 60.0472213 263.64229422 62.890625 261.453125 C65.43996378 259.69691384 68.08711782 258.40691019 70.875 257.0625 C75.50292723 254.81778218 79.68059506 252.32131769 83.890625 249.37890625 C86.0306879 247.97993921 88.18483389 246.89208987 90.5 245.8125 C94.26028064 244.38083607 94.26028064 244.38083607 95 241 C95.8971875 240.566875 95.8971875 240.566875 96.8125 240.125 C100.72835336 238.11113256 102.62298695 234.92982262 104.24854469 230.92072964 C106.61375027 222.65183378 107.56939599 215.16948534 107.48583984 206.58813477 C107.49153488 204.69998802 107.49153488 204.69998802 107.49734497 202.7736969 C107.50690931 199.3690052 107.49190496 195.9648506 107.47143888 192.56022382 C107.45367511 188.97610565 107.45739652 185.39199931 107.4581604 181.80784607 C107.45629736 175.80059991 107.43906093 169.79355794 107.41162109 163.78637695 C107.38008047 156.85611799 107.36962894 149.92608129 107.3710922 142.99575573 C107.37244537 135.58368114 107.35856321 128.17169129 107.34019899 120.75964236 C107.33595098 118.63564716 107.33451871 116.51166576 107.33372116 114.3876667 C107.33132947 110.42706656 107.31187023 106.46664891 107.29052734 102.50610352 C107.2918869 100.75345184 107.2918869 100.75345184 107.29327393 98.96539307 C107.34059678 89.55484371 107.34059678 89.55484371 103.64453125 81.10546875 C100.80651651 79.19772963 98.36633663 79.29463588 95.015625 79.3828125 C88.71678237 80.67195387 83.37384534 84.61670329 78 88 Z " fill="#383253" transform="translate(263,75)"/>
<path d="M0 0 C2.67159616 0.19469122 3.75482889 0.74896355 5.6328125 2.671875 C6.12523437 3.35765625 6.61765625 4.0434375 7.125 4.75 C7.62257813 5.42546875 8.12015625 6.1009375 8.6328125 6.796875 C10 9 10 9 10.96484375 11.42578125 C12.14730932 14.36632771 13.69348624 16.79335011 15.4375 19.4375 C22.12604818 29.84035677 22.12604818 29.84035677 21.6875 33.875 C21.460625 34.57625 21.23375 35.2775 21 36 C19.02 36.495 19.02 36.495 17 37 C13.40614761 32.99147234 11.04191871 28.55290449 8.5625 23.81640625 C6.86557797 20.7577043 4.97278533 17.88689922 3 15 C2.76925781 15.87398437 2.53851563 16.74796875 2.30078125 17.6484375 C1.41284662 20.99661789 0.51933034 24.34318185 -0.37939453 27.68847656 C-0.80352696 29.26821135 -1.22631749 30.84830687 -1.64794922 32.42871094 C-2.30118507 34.87074121 -2.96223789 37.3105399 -3.625 39.75 C-3.83084717 40.5239209 -4.03669434 41.2978418 -4.2487793 42.09521484 C-5.17633227 45.48309362 -6.03538826 48.05308239 -8 51 C-9.65 50.67 -11.3 50.34 -13 50 C-13.96136643 46.29210702 -13.98268185 43.92077818 -12.85546875 40.26953125 C-12.59056641 39.38330078 -12.32566406 38.49707031 -12.05273438 37.58398438 C-11.76720703 36.66939453 -11.48167969 35.75480469 -11.1875 34.8125 C-9.30336581 28.65470614 -7.65447488 22.58626644 -6.45825195 16.2565918 C-5.84961215 13.25943801 -4.97571601 10.39665689 -4 7.5 C-3.505 5.99953125 -3.505 5.99953125 -3 4.46875 C-2 2 -2 2 0 0 Z " fill="#6DF1D8" transform="translate(277,239)"/>
<path d="M0 0 C3.1875 1.0625 3.1875 1.0625 4.296875 2.6328125 C4.95356483 4.0054019 5.57822298 5.39362344 6.17578125 6.79296875 C7.55050568 9.87681003 9.37584077 12.58824417 11.234375 15.3984375 C12.1875 17.0625 12.1875 17.0625 12.1875 19.0625 C12.8475 19.0625 13.5075 19.0625 14.1875 19.0625 C14.620625 20.114375 15.05375 21.16625 15.5 22.25 C16.50082792 24.62995921 17.49059617 26.51714425 18.9375 28.6875 C20.1875 31.0625 20.1875 31.0625 19.875 33.875 C19.648125 34.596875 19.42125 35.31875 19.1875 36.0625 C16.91015625 36.34375 16.91015625 36.34375 14.1875 36.0625 C12.30859375 34.15625 12.30859375 34.15625 10.625 31.5625 C10.03203125 30.65371094 9.4390625 29.74492187 8.828125 28.80859375 C6.73389414 25.3032502 4.93534396 21.75239281 3.1875 18.0625 C2.5275 17.0725 1.8675 16.0825 1.1875 15.0625 C-0.74280713 19.75038874 -2.15583626 24.29620371 -3.25 29.25 C-7.31531532 47.56531532 -7.31531532 47.56531532 -10.8125 51.0625 C-12.9375 50.6875 -12.9375 50.6875 -14.8125 50.0625 C-15.93714211 45.93833774 -15.60588354 43.13107339 -14.5546875 39.01171875 C-14.26094238 37.84487549 -13.96719727 36.67803223 -13.66455078 35.47583008 C-13.34212402 34.24630615 -13.01969727 33.01678223 -12.6875 31.75 C-12.3663623 30.49791748 -12.04522461 29.24583496 -11.71435547 27.95581055 C-4.48512222 0.09966938 -4.48512222 0.09966938 0 0 Z " fill="#6DF1D8" transform="translate(334.8125,206.9375)"/>
<path d="M0 0 C2.0625 0.4375 2.0625 0.4375 4 1 C4.00364563 2.03237289 4.00729126 3.06474579 4.01104736 4.12840271 C4.04807308 13.88258942 4.10592835 23.63646264 4.18390274 33.39041042 C4.22332333 38.40441081 4.25553837 43.41823699 4.27099609 48.43237305 C4.28619837 53.2760851 4.3207072 58.11931807 4.36830902 62.96281624 C4.38308605 64.80582566 4.39103889 66.6489035 4.39188385 68.49197197 C3.94898763 81.9238371 3.94898763 81.9238371 9 94 C11.85436858 96.35851877 11.85436858 96.35851877 15.125 97.8125 C21.60097339 101.01881934 21.60097339 101.01881934 23 105 C14.81519242 105.6076058 10.00694298 100.55910041 4.0625 95.5 C-0.6292011 89.81308957 -1.44178896 84.53206001 -1.35644531 77.41845703 C-1.35848969 76.58998764 -1.36053406 75.76151825 -1.36264038 74.90794373 C-1.36562975 72.19100306 -1.3472341 69.47468021 -1.328125 66.7578125 C-1.32506534 64.86449331 -1.32319079 62.97117186 -1.32244873 61.07785034 C-1.31785805 57.12212428 -1.30347389 53.16660321 -1.28125 49.2109375 C-1.25285236 44.12970133 -1.24202557 39.04862558 -1.2375679 33.96731758 C-1.23342254 30.06412135 -1.22361439 26.16095778 -1.21169281 22.25777817 C-1.20598153 20.382997 -1.20122568 18.50821268 -1.19742584 16.63342667 C-1.1905888 14.0239527 -1.1769718 11.41460864 -1.16113281 8.80517578 C-1.16001495 8.0249556 -1.15889709 7.24473541 -1.15774536 6.44087219 C-1.11469527 1.11469527 -1.11469527 1.11469527 0 0 Z " fill="#3F3959" transform="translate(104,209)"/>
<path d="M0 0 C5.33858503 0.27377359 8.44436525 2.44076176 12.67578125 5.40625 C14.74233935 6.82331841 16.79897631 8.05795622 19 9.25 C23.52509157 11.70307595 27.94732274 14.3143356 32.375 16.9375 C38.15590471 20.3582584 43.96825741 23.6858832 49.8984375 26.84375 C52 28 52 28 55 30 C55 31.32 55 32.64 55 34 C51.11765321 33.42764692 48.48533677 32.29193542 45.1875 30.1875 C42.25360093 28.36512216 39.36432215 26.61853514 36.25 25.125 C26.95208881 20.59813819 18.09741861 15.15127135 9.421875 9.54296875 C6.33979732 7.579387 3.19399081 5.77443934 0 4 C0 2.68 0 1.36 0 0 Z " fill="#3E3858" transform="translate(131,315)"/>
<path d="M0 0 C0.99 0.33 1.98 0.66 3 1 C3.625 4.0625 3.625 4.0625 3 8 C-1.8881307 12.73387016 -7.79402234 15.40477298 -14 18 C-16.33965951 19.57707424 -18.62517014 21.20350171 -20.88671875 22.890625 C-23 24 -23 24 -25.26953125 23.671875 C-26.12611328 23.33929688 -26.12611328 23.33929688 -27 23 C-27.5 20.375 -27.5 20.375 -27 17 C-22.37699656 11.80423507 -15.21796321 8.84122558 -9.1484375 5.7109375 C-5.91127164 4.03201323 -5.91127164 4.03201323 -2.7890625 1.7265625 C-1.86867188 1.15679687 -0.94828125 0.58703125 0 0 Z " fill="#39FF14" transform="translate(328,307)"/>
<path d="M0 0 C1.32 0 2.64 0 4 0 C4 5.61 4 11.22 4 17 C2.68 17 1.36 17 0 17 C-1.75559942 15.24440058 -1.13221919 12.96417558 -1.13671875 10.62890625 C-1.13285156 9.92636719 -1.12898438 9.22382813 -1.125 8.5 C-1.12886719 7.79746094 -1.13273437 7.09492188 -1.13671875 6.37109375 C-1.12661378 1.12661378 -1.12661378 1.12661378 0 0 Z " fill="#3F3959" transform="translate(104,187)"/>
<path d="M0 0 C1.98 0.495 1.98 0.495 4 1 C4 5.62 4 10.24 4 15 C2.35 15 0.7 15 -1 15 C-1.02685412 12.68756208 -1.04632841 10.3750373 -1.0625 8.0625 C-1.07410156 6.77472656 -1.08570312 5.48695313 -1.09765625 4.16015625 C-1 1 -1 1 0 0 Z " fill="#3F3959" transform="translate(104,166)"/>
<path d="M0 0 C6.05537521 0.30276876 9.51483458 3.27754038 14 7 C13.67 7.66 13.34 8.32 13 9 C7.71862571 8.48474397 4.42778844 6.74522883 0 4 C0 2.68 0 1.36 0 0 Z " fill="#3B3656" transform="translate(191,350)"/>
</svg>
